<svg xmlns="http://www.w3.org/2000/svg" version="1.1" xmlns:xlink="http://www.w3.org/1999/xlink"
    xmlns:svgjs="http://svgjs.dev/svgjs" width="1000" height="999" viewBox="0 0 1000 999">
    <g transform="matrix(1,0,0,1,-0.215743440233382,-0.21552769679306039)"><svg viewBox="0 0 343 343"
            data-background-color="#ffffff" preserveAspectRatio="xMidYMid meet" height="999" width="1000"
            xmlns="http://www.w3.org/2000/svg" xmlns:xlink="http://www.w3.org/1999/xlink">
            <g id="tight-bounds" transform="matrix(1,0,0,1,0.0740000000000407,0.07400000000001228)"><svg
                    viewBox="0 0 342.85155851775386 342.85155851775386" height="342.85155851775386"
                    width="342.85155851775386">
                    <g><svg></svg></g>
                    <g><svg viewBox="0 0 342.85155851775386 342.85155851775386" height="342.85155851775386"
                            width="342.85155851775386">
                            <g>
                                <path
                                    d="M0 171.426c0-94.676 76.75-171.426 171.426-171.426 94.676 0 171.426 76.75 171.426 171.426 0 94.676-76.75 171.426-171.426 171.426-94.676 0-171.426-76.75-171.426-171.426zM171.426 332.128c88.754 0 160.703-71.949 160.702-160.702 0-88.754-71.949-160.703-160.702-160.703-88.754 0-160.703 71.949-160.703 160.703 0 88.754 71.949 160.703 160.703 160.702z"
                                    data-fill-palette-color="tertiary" fill="#ee3e38" stroke="transparent"></path>
                                <ellipse rx="164.56874808852186" ry="164.56874808852186" cx="171.42577925887693"
                                    cy="171.42577925887693" fill="#ee3e38" stroke="transparent" stroke-width="0"
                                    fill-opacity="1" data-fill-palette-color="tertiary"></ellipse>
                            </g>
                            <g transform="matrix(1,0,0,1,64.84655864529837,111.97223535630644)"><svg
                                    viewBox="0 0 213.1584412271571 118.90708780514096" height="118.90708780514096"
                                    width="213.1584412271571">
                                    <g><svg viewBox="0 0 213.1584412271571 118.90708780514096"
                                            height="118.90708780514096" width="213.1584412271571">
                                            <g><svg viewBox="0 0 213.1584412271571 118.90708780514096"
                                                    height="118.90708780514096" width="213.1584412271571">
                                                    <g><svg viewBox="0 0 213.1584412271571 118.90708780514096"
                                                            height="118.90708780514096" width="213.1584412271571">
                                                            <g id="textblocktransform"><svg
                                                                    viewBox="0 0 213.1584412271571 118.90708780514096"
                                                                    height="118.90708780514096"
                                                                    width="213.1584412271571" id="textblock">
                                                                    <g><svg viewBox="0 0 213.1584412271571 118.90708780514096"
                                                                            height="118.90708780514096"
                                                                            width="213.1584412271571">
                                                                            <g transform="matrix(1,0,0,1,0,0)"><svg
                                                                                    width="213.1584412271571"
                                                                                    viewBox="2.1500000953674316 -33.5 60.94999694824219 34"
                                                                                    height="118.90708780514096"
                                                                                    data-palette-color="#ffffff">
                                                                                    <path
                                                                                        d="M16-33.5L16-33.5Q20.35-33.5 23.5-31.73 26.65-29.95 28.75-26.5L28.75-26.5 25.4-23.9Q23.55-27.1 21.23-28.43 18.9-29.75 15.6-29.75L15.6-29.75Q12.95-29.75 11.23-29 9.5-28.25 8.7-27.03 7.9-25.8 7.9-24.25L7.9-24.25Q7.9-22.5 9-21.18 10.1-19.85 13.4-19.1L13.4-19.1 20.55-17.5Q25.3-16.45 27.18-14.33 29.05-12.2 29.05-9.05L29.05-9.05Q29.05-6.25 27.48-4.08 25.9-1.9 23.05-0.7 20.2 0.5 16.35 0.5L16.35 0.5Q12.75 0.5 10.03-0.48 7.3-1.45 5.35-3.1 3.4-4.75 2.15-6.8L2.15-6.8 5.65-9.65Q6.6-7.75 8.1-6.3 9.6-4.85 11.73-4.05 13.85-3.25 16.6-3.25L16.6-3.25Q19.15-3.25 21.03-3.88 22.9-4.5 23.9-5.73 24.9-6.95 24.9-8.7L24.9-8.7Q24.9-10.3 23.85-11.58 22.8-12.85 19.9-13.5L19.9-13.5 12.15-15.25Q9.1-15.95 7.23-17.18 5.35-18.4 4.53-20.08 3.7-21.75 3.7-23.7L3.7-23.7Q3.7-26.35 5.18-28.58 6.65-30.8 9.43-32.15 12.2-33.5 16-33.5ZM37.45-33L49.95-33Q55-33 58.05-30.4 61.1-27.8 61.1-23.35L61.1-23.35Q61.1-18.9 58.02-16.43 54.95-13.95 49.9-13.95L49.9-13.95 49.55-13.7 41.45-13.7 41.45 0 37.45 0 37.45-33ZM41.45-17.45L49.9-17.45Q53.45-17.45 55.17-18.93 56.9-20.4 56.9-23.35L56.9-23.35Q56.9-26.3 55.17-27.78 53.45-29.25 49.9-29.25L49.9-29.25 41.45-29.25 41.45-17.45ZM48.85-14.45L52.2-16.65 63.1 0 58.35 0 48.85-14.45Z"
                                                                                        opacity="1"
                                                                                        transform="matrix(1,0,0,1,0,0)"
                                                                                        fill="#ffffff"
                                                                                        class="wordmark-text-0"
                                                                                        data-fill-palette-color="quaternary"
                                                                                        id="text-0"></path>
                                                                                </svg></g>
                                                                        </svg></g>
                                                                </svg></g>
                                                        </svg></g>
                                                    <g></g>
                                                </svg></g>
                                        </svg></g>
                                </svg></g>
                        </svg></g>
                    <defs></defs>
                </svg>
                <rect width="342.85155851775386" height="342.85155851775386" fill="none" stroke="none"
                    visibility="hidden"></rect>
            </g>
        </svg></g>
</svg>